<svg xmlns="http://www.w3.org/2000/svg" width="256" height="256"><path fill="#1976D2" fill-opacity=".016" fill-rule="evenodd" d="M0 128.004v128.004l128.25-.254 128.25-.254.254-127.75L257.008 0H0v128.004m.485.496c0 70.4.119 99.053.265 63.672.146-35.38.146-92.98 0-128C.604 29.153.485 58.1.485 128.5"/><path fill="#1976D2" fill-opacity=".159" fill-rule="evenodd" d="M16.571 77.571C15.209 78.934 15 83.374 15 111.015c0 31.802.005 31.875 2.223 33.428C19.116 145.77 23.964 146 50 146s30.884-.23 32.777-1.557C84.995 142.89 85 142.817 85 111.015c0-27.641-.209-32.081-1.571-33.444C82.066 76.209 77.628 76 50 76s-32.066.209-33.429 1.571m74.986.652c-1.327 1.894-1.557 6.762-1.557 33 0 29.444.087 30.864 2 32.777 1.915 1.915 3.333 2 33.345 2 29.097 0 31.464-.131 33-1.829 1.467-1.621 1.655-5.453 1.655-33.8 0-23.533-.317-32.288-1.2-33.171-.884-.884-9.699-1.2-33.443-1.2-32.186 0-32.246.004-33.8 2.223M166.2 77.2c-.884.884-1.2 9.699-1.2 33.443 0 32.186.004 32.246 2.223 33.8 1.894 1.327 6.762 1.557 33 1.557 29.444 0 30.864-.087 32.777-2 1.915-1.915 2-3.333 2-33.345 0-29.097-.131-31.464-1.829-33-1.621-1.467-5.453-1.655-33.8-1.655-23.533 0-32.288.317-33.171 1.2M43.222 84.405c-10.977 3.594-16.532 12.348-16.507 26.013.03 16.803 8.12 26.26 23.401 27.357 9.178.658 15.516-1.568 20.807-7.308 4.675-5.071 4.899-5.957 1.917-7.553-1.921-1.027-2.532-.707-5.521 2.89-8.881 10.692-25.366 8.864-31.448-3.488-3.429-6.965-3.37-18.033.129-24.277 6.308-11.256 21.454-13.292 30.004-4.033 3.25 3.518 3.71 3.711 6.319 2.644l2.815-1.15L72.78 92c-3.552-5.274-9.447-8.077-18.035-8.576-4.606-.267-8.803.09-11.523.981M106 110.5V137h6V114.925l9.143.287 9.143.288 6.328 10c3.48 5.5 6.464 10.371 6.631 10.824.168.453 1.983.678 4.034.5l3.73-.324-7.003-10.5c-3.851-5.775-7.003-10.751-7.004-11.058-.001-.306 1.834-1.367 4.078-2.357 11.055-4.878 11.503-21.22.726-26.437-3.961-1.917-6.121-2.148-20.122-2.148H106v26.5m89.087-24.308c-.5 1.27-5.392 13.244-10.873 26.611l-9.966 24.303 3.586-.303c3.432-.29 3.695-.591 6.128-7.005 1.398-3.686 3.028-7.188 3.623-7.783.688-.688 5.406-.978 12.96-.798l11.88.283 3.037 7.747c2.921 7.448 3.163 7.746 6.288 7.75 1.787.001 3.25-.118 3.25-.266 0-.148-4.678-11.96-10.396-26.25L204.208 84.5l-4.107-.308c-3.507-.262-4.239.03-5.014 2M112.215 99.25l.285 10.25 9.5.311c11.041.362 16.081-.827 18.946-4.47 3.914-4.976 1.715-13.218-4.065-15.233-1.749-.609-8.078-1.108-14.065-1.108H111.93l.285 10.25M199 89.876c0 .703-2.025 6.456-4.5 12.786-2.475 6.33-4.5 12.145-4.5 12.923 0 1.126 2.045 1.415 10 1.415 5.524 0 10-.418 10-.933 0-1.408-9.208-25.425-10.166-26.517-.506-.576-.834-.448-.834.326M15.223 154.557C13.662 155.65 13 157.133 13 159.538c0 2.817.442 3.535 2.498 4.051 2.874.721 5.502-.04 5.502-1.593 0-.731-.587-.752-1.869-.066-1.027.55-2.152.715-2.5.368-1.136-1.136-.662-4.875.869-6.857 1.415-1.831 1.577-1.842 2.849-.207 1.407 1.81 2.651 1.387 2.651-.901 0-1.844-5.031-1.7-7.777.224m38.292 3.193c-.909 6.06-1.052 5.75 2.652 5.75 2.406 0 3.235-.481 3.451-2 .156-1.1.591-3.279.967-4.842.65-2.702.578-2.777-1.451-1.51-1.174.733-2.134 2.323-2.134 3.534 0 1.21-.498 2.508-1.107 2.884-.718.444-.911.026-.548-1.191 1.778-5.957 1.851-7.375.377-7.375-1.017 0-1.723 1.519-2.207 4.75m42.123-3.25c.363.944-.011 1.5-1.008 1.5-1.961 0-5.036 4.499-4.331 6.338.286.744 1.82 1.389 3.408 1.435 2.725.077 2.946-.228 3.884-5.346.896-4.891.82-5.427-.767-5.427-1.155 0-1.563.517-1.186 1.5m14.79-.616c.301.486-.079 2.961-.843 5.5-1.371 4.556-1.359 4.616.919 4.616 1.872 0 2.202-.408 1.745-2.156-.387-1.478-.2-1.932.593-1.441.637.393 1.158 1.371 1.158 2.173 0 1.061.99 1.382 3.637 1.179 3.209-.246 3.682-.631 4.017-3.267.208-1.643.484-3.663.612-4.488.129-.825-.216-1.567-.766-1.65-.55-.082-.888.255-.75.75s-.2.9-.75.9-1.007 1.012-1.015 2.25c-.009 1.238-.435 2.912-.947 3.722-1.553 2.457-2.533-1.678-1.053-4.444 1.687-3.153.593-4.528-3.603-4.528-1.925 0-3.254.398-2.954.884m52.994 1.362c-.392 1.236-1.371 2.728-2.176 3.316-.805.589-1.297 1.94-1.093 3.004.296 1.545 1.316 1.978 5.07 2.152 2.584.119 4.968-.218 5.297-.75.329-.533-.119-.968-.996-.968-1.284 0-1.386-.389-.524-2 .854-1.596.76-2-.465-2-.844 0-1.535.525-1.535 1.167 0 .641-.297.869-.661.506-.363-.363.131-1.535 1.098-2.604.968-1.069 1.463-2.421 1.102-3.006-1.168-1.89-4.377-1.148-5.117 1.183m16.925-1.108c-.596.749-2.273 3.274-3.728 5.612-2.05 3.295-2.304 4.25-1.132 4.25.832 0 1.513-.675 1.513-1.5s.675-1.5 1.5-1.5 1.5.675 1.5 1.5c0 .827.886 1.5 1.975 1.5 1.693 0 1.884-.465 1.336-3.25-1.41-7.168-1.811-8.061-2.964-6.612m26.835.584c-.505.978-1.208 3.381-1.561 5.341l-.641 3.562 12.088.033c11.603.031 12.151-.062 13.629-2.318 1.238-1.889 1.296-2.643.299-3.845-1.934-2.33-3.842-1.781-6.103 1.755-2.175 3.401-2.208 2.932-.284-4 .461-1.663.202-2.25-.992-2.25-.89 0-1.617.645-1.617 1.433s-.9 1.718-2 2.067c-1.1.349-2 .968-2 1.376 0 .408-.678 1.615-1.506 2.683-1.409 1.816-1.443 1.765-.525-.809.54-1.512.88-2.783.756-2.824-3.467-1.144-4.929-.639-6.738 2.328-2.169 3.557-2.484 2.964-1.061-1.997 1.019-3.55-.26-5.408-1.744-2.535m-93.582.878c-.356.927-.422 1.911-.147 2.186.275.275.791-.259 1.147-1.186.356-.927.422-1.911.147-2.186-.275-.275-.791.259-1.147 1.186m-90.187 2.892c-1.95 2.977-1.246 5.508 1.533 5.508 2.877 0 5.694-4.524 4.05-6.505-1.808-2.179-3.727-1.836-5.583.997m7.208.655c-1.2 5.998.06 6.761 2.646 1.603l1.629-3.25-.573 3.25c-.453 2.568-.232 3.25 1.052 3.25 1.139 0 1.625-.897 1.625-3 0-1.65.009-3.334.02-3.743.011-.409-1.285-.849-2.88-.978-2.515-.204-2.981.176-3.519 2.868m8.799-1.799c-.316.823-.016 2.543.667 3.824 1.129 2.118 1.091 2.204-.423.956-1.432-1.182-1.664-1.147-1.664.25 0 2.073 3.855 2.164 4.643.109.32-.832.017-2.192-.673-3.023-1.053-1.269-.969-1.401.525-.828 1.267.486 1.643.277 1.309-.727-.658-1.974-3.693-2.363-4.384-.561m5.566.402c-.007.963-.273 2.718-.59 3.9-.51 1.9-.17 2.15 2.916 2.15 3.239 0 3.522-.251 3.897-3.461.54-4.629-.812-5.203-2.675-1.135l-1.508 3.296.566-3.25c.442-2.534.219-3.25-1.013-3.25-.868 0-1.585.787-1.593 1.75m18.414-.985c-2.182 1.457-3.384 4.851-2.153 6.082 1.638 1.638 3.191 1.432 5.098-.676 2.091-2.31 2.123-4.777.073-5.564-1.901-.73-1.67-.742-3.018.158m5.586.951c-.007.981-.285 2.796-.616 4.034-.816 3.043 1.415 2.945 2.578-.114.494-1.3 1.673-2.66 2.619-3.023 2.135-.819 1.154-1.915-2.105-2.352-1.816-.243-2.466.139-2.476 1.455m6.427.776c-.898 1.371-1.373 3.171-1.054 4 .641 1.671 4.568 2.089 4.766.508.069-.55.181-1.525.25-2.167.203-1.895 2.325-2.058 3.025-.232.356.927.411 1.921.124 2.209-.288.288-.524-.028-.524-.702 0-.674-.45-.948-1-.608-1.819 1.124-1.039 2.5 1.417 2.5 2.804 0 3.722-1.707 2.348-4.371-.678-1.314-.637-1.668.135-1.191.62.384 1.1 0 1.1-.879 0-1.797-2.094-2.065-3.687-.472-.783.783-1.275.783-1.759 0-1.136-1.837-3.426-1.211-5.141 1.405m24.242-.663c-3.444 3.805-.328 8.388 3.173 4.666 1.572-1.673 1.553-1.74-.328-1.135-1.859.599-1.876.549-.25-.718 2.066-1.608 2.33-4.642.405-4.642-.74 0-2.09.823-3 1.829m25.105-.579c-1.573 1.212-2.123 2.844-1.878 5.57.147 1.646 4.303 1.16 4.873-.571.277-.839-.191-1.031-1.421-.584-1.315.478-1.152.099.575-1.337 3.484-2.898 1.432-5.838-2.149-3.078m5.66.098c-.316.823-.016 2.543.667 3.824 1.129 2.118 1.091 2.204-.423.956-1.432-1.182-1.664-1.147-1.664.25 0 2.073 3.855 2.164 4.643.109.32-.832.017-2.192-.673-3.023-1.053-1.269-.969-1.401.525-.828 1.267.486 1.643.277 1.309-.727-.658-1.974-3.693-2.363-4.384-.561m6.758-.479c-.727.461-1.493 1.916-1.701 3.234a593.56 593.56 0 0 0-.678 4.397c-.229 1.531.347 2.074 2.457 2.317 2.983.343 4.831-2.13 2.977-3.984-.711-.711-.385-1.681 1.042-3.108 2.026-2.026 2.03-2.094.15-2.83-2.551-1-2.71-1.001-4.247-.026m8.061-.199c-3.454 1.38-3.686 7.33-.287 7.33 2.754 0 5.674-3.785 4.435-5.749-1.175-1.861-2.337-2.304-4.148-1.581m6.472.025c-.262.443-.789 2.268-1.173 4.055-.613 2.86-.444 3.25 1.414 3.25 2.615 0 3.705-2.503 1.991-4.569-.705-.849-.868-1.406-.362-1.237.505.168 1.055-.144 1.222-.694.367-1.214-2.422-1.94-3.092-.805m34.709.653c-.316.823-.016 2.543.667 3.824 1.129 2.118 1.091 2.204-.423.956-1.432-1.182-1.664-1.147-1.664.25 0 2.073 3.855 2.164 4.643.109.32-.832.017-2.192-.673-3.023-1.053-1.269-.969-1.401.525-.828 1.267.486 1.643.277 1.309-.727-.658-1.974-3.693-2.363-4.384-.561m6.147.578c-.958 1.059-1.585 2.741-1.393 3.738.466 2.421 3.887 2.973 5.421.875 1.147-1.568 1.289-1.569 2.164-.006 1.038 1.856 4.342 1.668 4.992-.284.272-.818-.167-1.027-1.269-.604-1.275.489-1.59.185-1.297-1.249.243-1.189 1.066-1.777 2.207-1.578 1.108.194 1.656-.173 1.402-.937-.7-2.098-2.562-2.113-4.639-.036-1.925 1.925-1.981 1.927-2.469.063-.64-2.447-2.895-2.439-5.119.018m41.11-1.176c-.243.412-.755 2.213-1.139 4-.606 2.824-.432 3.25 1.324 3.25 2.711 0 3.475-1.502 2.084-4.1-.797-1.489-.811-1.934-.046-1.462.62.384 1.1 0 1.1-.879 0-1.578-2.511-2.189-3.323-.809m-207.948 1.854c-.401.401-.715 1.667-.699 2.813.028 1.923.111 1.946 1.071.295 1.119-1.922.833-4.312-.372-3.108m37.991.728c-1.114 2.833-.932 4.28.374 2.974.601-.601.926-1.929.72-2.95-.36-1.79-.399-1.791-1.094-.024m29.625.211c-.326.849-.369 1.767-.096 2.04.274.273.737-.422 1.03-1.543.624-2.383-.069-2.751-.934-.497m52.384-.939c-.401.401-.715 1.667-.699 2.813.028 1.923.111 1.946 1.071.295 1.119-1.922.833-4.312-.372-3.108m48.271.314c0 .505-.301 1.704-.67 2.664-.421 1.098-.28 1.505.379 1.098 1.383-.855 2.361-4.68 1.197-4.68a.915.915 0 0 0-.906.918m18.345.625c-.326.849-.369 1.767-.096 2.04.274.273.737-.422 1.03-1.543.624-2.383-.069-2.751-.934-.497m7.255.057c-.356.927-.422 1.911-.147 2.186.275.275.791-.259 1.147-1.186.356-.927.422-1.911.147-2.186-.275-.275-.791.259-1.147 1.186m8.129-.996c-.401.401-.715 1.667-.699 2.813.028 1.923.111 1.946 1.071.295 1.119-1.922.833-4.312-.372-3.108m-65.186 1.327c-.317.512-.118 1.213.441 1.559.559.345 1.016-.074 1.016-.931 0-1.757-.6-2.015-1.457-.628m-26.033 5.085c.346.559 1.047.758 1.559.441 1.387-.857 1.129-1.457-.628-1.457-.857 0-1.276.457-.931 1.016m-45.324 4.701c-3.806 4.73-2.119 9.837 3.009 9.11 1.871-.265 2.364-1.035 2.616-4.085.217-2.629-.139-3.931-1.187-4.333-.824-.316-1.253-1.212-.954-1.992.906-2.36-1.158-1.59-3.484 1.3m-90.097 4.38c-1.363 4.551-.911 5.83 1.387 3.923 1.229-1.02 1.819-1.02 3.048 0 2.298 1.907 2.75.628 1.387-3.923C6.106 171.41 5.104 170 4 170s-2.106 1.41-2.911 4.097M9 174.5c0 4.672 1.179 5.52 5.418 3.893 2.141-.821 2.141-6.965 0-7.786C10.179 168.98 9 169.828 9 174.5m9 0c0 4.446 1.424 6.142 2.311 2.75.435-1.667.463-1.667.573 0 .064.963.758 1.75 1.543 1.75.784 0 1.632-.787 1.884-1.75.435-1.667.463-1.667.573 0 .256 3.862 2.116 1.445 2.116-2.75 0-5.208-2.246-6.262-3.747-1.758l-.915 2.743-.688-2.743C20.487 168.11 18 169.308 18 174.5m10.5 0v4.5h3.75c3.202 0 3.76-.329 3.818-2.25l.067-2.25 1.104 2.29c1.761 3.658 4.261 2.355 4.261-2.22 0-4.191-2.449-6.483-2.568-2.403l-.067 2.333-1.085-2.25c-.864-1.791-1.922-2.25-5.183-2.25H28.5v4.5m14 .044v4.543l4.991-.293c3.9-.23 5.066-.693 5.337-2.12.191-1.004-.479-2.452-1.49-3.218-1.693-1.282-1.581-1.395 1.412-1.424 3.054-.03 3.25.179 3.25 3.468 0 1.925.45 3.5 1 3.5s1-1.575 1-3.5.45-3.5 1-3.5 1-.45 1-1c0-.556-2.677-1-6.031-1-7.094 0-8.904 1.936-4.875 5.213 2.353 1.914 2.358 1.947.204 1.478-1.211-.263-2.443.036-2.738.665-.295.629-.417-.768-.272-3.106.23-3.689-.003-4.25-1.762-4.25-1.737 0-2.026.647-2.026 4.544m18.5.039c0 3.245.365 4.45 1.25 4.125.688-.252 1.104-1.064.926-1.805-.221-.921.278-.802 1.579.375 2.263 2.048 3.586 2.147 6.289.472 1.658-1.027 2.18-.988 2.932.221 1.685 2.708 2.363.085 1.026-3.966-1.636-4.956-3.516-5.105-5.468-.433-.82 1.965-1.953 3.287-2.516 2.939-.667-.412-.691-1.254-.068-2.418 1.2-2.241-.452-4.093-3.65-4.093-2.065 0-2.3.467-2.3 4.583m16.372-3.111c-.287.748-.375 2.635-.197 4.194.258 2.249.892 2.899 3.075 3.15 3.205.369 3.733-1.326.663-2.128-3.149-.824-2.066-4.111 1.489-4.518 2.794-.32 2.867-.216 2.305 3.25-.474 2.922-.271 3.58 1.106 3.58 1.327 0 1.687-.939 1.687-4.406v-4.406l-4.803-.037c-3.153-.025-4.983.43-5.325 1.321M99 174.5c0 2.475.45 4.5 1 4.5s1-1 1-2.223v-2.222l1.557 2.222c2.625 3.749 4.443 2.818 4.443-2.277 0-4.784-1.519-5.975-2.891-2.266l-.826 2.233-.709-2.233C101.271 168.128 99 169.568 99 174.5m12 0c0 4.029.241 4.5 2.3 4.5 3.045 0 4.7-1.793 4.7-5.093 0-2.732-1.528-3.907-5.082-3.907-1.607 0-1.918.731-1.918 4.5m8.744-3.75c-.205.412-.345 2.325-.309 4.25.057 3.056.414 3.54 2.815 3.816 1.513.174 2.75-.163 2.75-.75 0-.586-.675-1.066-1.5-1.066s-1.5-.45-1.5-1 .675-1 1.5-1c2.077 0 1.888-1.752-.25-2.311-1.667-.435-1.667-.463 0-.573.963-.064 1.75-.566 1.75-1.116 0-1.153-4.694-1.376-5.256-.25m8.569.878c-.402 1.045.236 2.29 1.781 3.478l2.406 1.85-2.25.022c-1.238.012-2.25.502-2.25 1.088 0 .587 1.234.924 2.741.75 3.331-.384 4.221-3.371 1.597-5.36-1.708-1.294-1.714-1.395-.088-1.424 2.787-.051 2.025-2.032-.781-2.032-1.416 0-2.807.717-3.156 1.628M135 174.5c0 4.333.111 4.5 3 4.5 1.65 0 3-.45 3-1s-.675-1-1.5-1c-2.121 0-1.876-1.993.25-2.032 1.583-.029 1.565-.171-.191-1.5-1.693-1.28-1.725-1.468-.25-1.468.93 0 1.691-.45 1.691-1s-1.35-1-3-1c-2.889 0-3 .167-3 4.5m7.394-3.084c-.299.778-.397 2.691-.219 4.25.274 2.384.84 2.884 3.575 3.147 2.903.28 3.25.04 3.25-2.25 0-1.896-.52-2.563-2-2.563-2.105 0-2.72 1.476-.975 2.342.564.279.451.392-.25.25-2.258-.458-1.46-4.066.975-4.412 3.338-.474 2.727-2.18-.781-2.18-1.692 0-3.272.626-3.575 1.416m7.606 1.962c0 3.91 1.911 5.914 5.195 5.449 1.934-.274 2.355-1.011 2.612-4.577.354-4.882-1.518-5.893-1.994-1.077-.452 4.584-2.813 4.929-2.813.41 0-2.518-.446-3.583-1.5-3.583-1.037 0-1.5 1.042-1.5 3.378m9 1.059c0 3.389.386 4.563 1.5 4.563.825 0 1.514-.787 1.53-1.75.029-1.667.079-1.667 1.05 0 .561.963 1.727 1.75 2.592 1.75 1.183 0 1.304-.325.486-1.31-.598-.72-.99-2.632-.872-4.25.192-2.639-.119-2.972-3.036-3.253-3.238-.313-3.25-.296-3.25 4.25m9.2-3.237c-.66.66-1.2 2.145-1.2 3.3 0 4.816 6.014 6.261 8.255 1.984 1.208-2.306 1.482-2.393 3.282-1.032 1.924 1.455 1.918 1.485-.287 1.516-1.238.018-2.25.512-2.25 1.098 0 .587 1.234.924 2.741.75 3.331-.384 4.221-3.371 1.597-5.36-1.708-1.294-1.714-1.395-.088-1.424 2.735-.05 2.052-2.032-.7-2.032-1.348 0-2.856.724-3.351 1.609-.828 1.48-.951 1.48-1.519 0-.723-1.885-4.75-2.139-6.48-.409m16.815-.95c.008.137.636 2.034 1.395 4.215 1.425 4.095 3.59 5.945 3.59 3.069 0-.898.687-2.961 1.526-4.584 1.333-2.578 1.339-2.95.049-2.95-.811 0-1.881.724-2.376 1.609-.828 1.48-.951 1.48-1.519 0-.487-1.271-2.728-2.414-2.665-1.359m10.298 1.378c-.402 1.045.236 2.29 1.781 3.478l2.406 1.85-2.25.022c-1.238.012-2.25.502-2.25 1.088 0 .587 1.234.924 2.741.75 3.331-.384 4.221-3.371 1.597-5.36-1.708-1.294-1.714-1.395-.088-1.424 2.787-.051 2.025-2.032-.781-2.032-1.416 0-2.807.717-3.156 1.628M202 174.5c0 4.333.111 4.5 3 4.5 1.65 0 3-.45 3-1s-.675-1-1.5-1c-2.121 0-1.876-1.993.25-2.032 1.583-.029 1.565-.171-.191-1.5-1.693-1.28-1.725-1.468-.25-1.468.93 0 1.691-.45 1.691-1s-1.35-1-3-1c-2.889 0-3 .167-3 4.5m7-.066c0 2.511.45 4.566 1 4.566s1.014-.787 1.032-1.75c.03-1.667.095-1.667 1.36 0 .731.963 1.841 1.75 2.468 1.75 1.275 0 1.512-1.294.436-2.371-.388-.387-.725-1.925-.75-3.417-.037-2.201-.564-2.772-2.796-3.028-2.645-.305-2.75-.142-2.75 4.25m7-3.883c0 .394.527 2.475 1.17 4.623 1.423 4.75 3.838 4.782 5.189.069 1.256-4.379 3.055-4.181 2.335.257-.461 2.841-.251 3.5 1.119 3.5 1.333 0 1.687-.945 1.687-4.5 0-4.378-.085-4.5-3.142-4.5-2.578 0-3.276.493-3.893 2.75l-.752 2.75-.634-2.426c-.574-2.196-3.079-4.249-3.079-2.523m13.394.865c-.299.778-.397 2.691-.219 4.25.258 2.249.892 2.899 3.075 3.15 3.155.363 3.755-1.32.75-2.106-1.1-.287-2-1.282-2-2.21 0-.928.9-1.923 2-2.21 1.1-.288 2-.921 2-1.407 0-1.467-5.022-.99-5.606.533m7.106 3.084c0 3.333.389 4.5 1.5 4.5s1.5-1.167 1.5-4.5-.389-4.5-1.5-4.5-1.5 1.167-1.5 4.5m4.872-1.845c-.89 3.546.731 5.845 4.122 5.845 3.218 0 4.714-2.743 3.408-6.25-.614-1.65-1.641-2.25-3.851-2.25-2.427 0-3.143.517-3.679 2.655m8.941-1.027c-.399 1.037.248 2.338 1.781 3.585 2.4 1.953 2.401 1.956.156 1.466-1.5-.328-2.25-.023-2.25.915 0 1.93 4.905 1.817 5.653-.131.324-.846-.21-2.421-1.187-3.5-1.608-1.778-1.62-1.963-.121-1.963.91 0 1.655-.45 1.655-1 0-1.675-5.016-1.122-5.687.628M32.252 174.5c.011 2.2.216 2.982.455 1.738.239-1.244.23-3.044-.02-4s-.446.062-.435 2.262M11 174.5c0 1.689.458 2.514 1.25 2.25.688-.229 1.25-1.242 1.25-2.25s-.562-2.021-1.25-2.25c-.792-.264-1.25.561-1.25 2.25m80.336-.933c-.834 2.172 1.282 4.215 2.797 2.7 1.28-1.28.487-4.267-1.133-4.267-.585 0-1.333.705-1.664 1.567M113 174.5c0 1.689.458 2.514 1.25 2.25.688-.229 1.25-1.242 1.25-2.25s-.562-2.021-1.25-2.25c-.792-.264-1.25.561-1.25 2.25m56.7-1.159c-.703 1.83.819 4.074 2.188 3.228 1.595-.985 1.374-4.569-.281-4.569-.766 0-1.625.603-1.907 1.341m41.3-.282c0 .582.45.781 1 .441s1-.816 1-1.059-.45-.441-1-.441-1 .477-1 1.059m32.336.508c-.834 2.172 1.282 4.215 2.797 2.7 1.28-1.28.487-4.267-1.133-4.267-.585 0-1.333.705-1.664 1.567"/><path fill="#1976D2" fill-opacity=".356" fill-rule="evenodd" d="M17.75 77.08c-1.609.938-1.75 3.61-1.75 33.27 0 23.75.316 32.566 1.2 33.45 1.716 1.716 63.884 1.716 65.6 0 .884-.884 1.2-9.703 1.2-33.465 0-30.876-.083-32.309-1.934-33.3-2.599-1.39-61.922-1.349-64.316.045m74.821.491c-1.362 1.363-1.571 5.79-1.571 33.3 0 23.345.317 32.046 1.2 32.929.884.884 9.703 1.2 33.465 1.2 30.876 0 32.309-.083 33.3-1.934.648-1.212 1.035-13.274 1.035-32.278 0-25.844-.231-30.672-1.557-32.565C156.891 76.006 156.8 76 125.515 76c-27.187 0-31.582.21-32.944 1.571m74.301.083c-2.13 2.567-2.01 65.015.128 66.367 2.339 1.479 64.308 1.271 65.8-.221.884-.884 1.2-9.703 1.2-33.465 0-30.876-.083-32.309-1.934-33.3-1.214-.649-13.46-1.035-32.878-1.035-27.563 0-31.093.181-32.316 1.654M41.511 84.601c-5.331 1.951-11.096 7.755-13.253 13.344-2.14 5.544-2.341 18.791-.371 24.436 1.784 5.112 7.626 11.482 12.613 13.753 9.781 4.455 26.178 1.21 31.719-6.276 4.019-5.429 4.049-5.668.922-7.285-2.866-1.482-2.971-1.445-5.266 1.904-3.434 5.012-8.544 7.523-15.311 7.523-6.482 0-10.22-1.614-13.918-6.009-3.652-4.34-4.938-9.537-4.501-18.191.299-5.915.895-8.234 2.849-11.087 3.56-5.195 8.6-7.713 15.442-7.713 6.496 0 10.22 1.614 13.949 6.046 2.269 2.696 2.987 2.997 5.307 2.223 1.476-.492 2.867-1.445 3.091-2.118.69-2.07-7.948-9.826-12.286-11.03-5.494-1.526-16.174-1.281-20.986.48m63.991-.466c-.295.769-.416 13.09-.269 27.381l.267 25.984 3.75.31 3.75.311V115h16.558l6.971 11.125c3.834 6.119 7.491 11.326 8.126 11.57.635.245 2.527.302 4.204.125l3.05-.32-7.407-11.378-7.406-11.378 4.143-2.122c6.166-3.158 8.261-6.612 8.261-13.622 0-6.948-2.122-10.504-8.011-13.426-5.151-2.556-35.099-3.753-35.987-1.439m89.594 1.057c-.494 1.27-5.443 13.428-10.997 27.02-5.555 13.592-10.099 24.981-10.099 25.31 0 .329 1.635.459 3.634.288 3.537-.302 3.715-.517 6.665-8.089l3.032-7.778 12.49.278 12.489.279 3.121 7.5c3.034 7.291 3.225 7.509 6.861 7.811l3.741.312-1.717-4.312c-.944-2.371-5.855-14.661-10.912-27.311l-9.196-23-4.107-.308c-3.509-.263-4.237.028-5.005 2M113 98.892V109h11.05c13.232 0 16.322-1.161 17.989-6.756 1.394-4.681.125-8.435-3.699-10.941-2.133-1.397-5.287-1.882-14.045-2.16L113 88.784v10.108m86-7.982c0 .684-2.035 6.448-4.523 12.81-2.487 6.362-4.345 11.745-4.129 11.962.217.216 4.669.264 9.893.106l9.499-.288-4.668-12.215C200.56 91.479 199 88.3 199 90.91M15.174 155.314c-2.408 2.564-2.81 5.65-.974 7.486 1.415 1.415 4.444 1.584 5.242.293.309-.498-.278-.687-1.303-.419-2.373.62-3.392-1.878-2.126-5.208 1.154-3.034 3.851-4.29 5.073-2.362.707 1.117.886 1.047.899-.354.022-2.572-4.192-2.223-6.811.564m39.138-.564c-.064.963-.445 3.438-.845 5.5-.45 2.317-.347 3.75.27 3.75.55 0 1.24-1.687 1.533-3.75.293-2.062.85-4.537 1.238-5.5.471-1.167.242-1.75-.687-1.75-.766 0-1.445.787-1.509 1.75m41.06 2.5c-1.048 5.538-1.044 5.795.082 5.5.525-.137 1.015-.925 1.089-1.75.075-.825.469-2.963.876-4.75.451-1.979.352-3.25-.252-3.25-.545 0-1.353 1.912-1.795 4.25m15.298-1c-.326 1.787-.887 4.262-1.248 5.5-.48 1.648-.24 2.25.895 2.25.934 0 1.699-1.093 1.924-2.75l.373-2.75 1.168 2.75c.643 1.512 1.63 2.75 2.193 2.75 1.308 0 1.291-.635-.089-3.212-.892-1.667-.792-2.261.5-2.984 2.045-1.145 2.085-3.409.074-4.181-.903-.347-1.475-.081-1.382.643.314 2.44-.097 3.734-1.186 3.734-.683 0-.868-.96-.481-2.5.443-1.767.22-2.5-.761-2.5-.778 0-1.648 1.428-1.98 3.25m51.962.91c-3.463 5.289-2.905 6.893 2.278 6.546 3.991-.267 7.028-1.706 3.602-1.706-1.759 0-1.759-.07-.012-2 1.026-1.134 1.31-2 .655-2-.635 0-1.155.45-1.155 1s-.45 1-1 1c-1.405 0-1.252-2.749.18-3.227 1.287-.429.426-3.773-.971-3.773-.47 0-2.079 1.872-3.577 4.16m59.743-3.362c.648 1.048-.403 2.44-2.875 3.811-1.123.623-2 2.145-2 3.472 0 1.827.544 2.363 2.396 2.363 2.032 0 2.596-.756 3.706-4.972.72-2.734 1.33-5.085 1.354-5.222.024-.137-.658-.25-1.515-.25-.857 0-1.337.359-1.066.798M121 155.059c0 .582.45.781 1 .441s1-.816 1-1.059-.45-.441-1-.441-1 .477-1 1.059m44.5-.059c-.34.55-.141 1 .441 1s1.059-.45 1.059-1-.198-1-.441-1-.719.45-1.059 1m12.195 3.619c-1.534 2.541-2.576 4.833-2.315 5.095.262.261 1.344-1.218 2.405-3.287l1.93-3.761.688 3.667c.931 4.962 3.06 4.883 2.239-.083-.341-2.062-.625-4.312-.631-5-.021-2.405-1.548-1.212-4.316 3.369M207.5 155c.34.55.816 1 1.059 1s.441-.45.441-1-.477-1-1.059-1-.781.45-.441 1m-149.472 2.426c-1.255 3.302-1.335 6.574-.16 6.574.882 0 2.343-8.122 1.596-8.87-.225-.224-.871.809-1.436 2.296m-34.603 2.017c-1.065 4.242 1.119 5.87 4.004 2.986C29.174 160.684 29.561 157 28 157c-.55 0-1 1.098-1 2.441 0 1.343-.48 2.738-1.067 3.1-1.696 1.049-2.07-.051-.986-2.902.626-1.646.644-2.639.047-2.639-.526 0-1.232 1.099-1.569 2.443m7.575-.525c0 1.055-.262 2.743-.582 3.75-.532 1.676-.447 1.667 1-.109C33.185 160.391 33.54 157 32 157c-.55 0-1 .863-1 1.918m3.85.082c-.082 1.1-.195 2.45-.25 3-.055.55.31 1.008.811 1.018.501.009 1.06-1.341 1.242-3 .182-1.66-.116-3.018-.661-3.018-.546 0-1.06.9-1.142 2m4.15-.559c0 .793.45 1.719 1 2.059 1.583.978 1.162 2.776-.5 2.138-.825-.316-1.5-.139-1.5.393 0 1.321 2.345 1.224 3.723-.154.815-.815.826-1.774.039-3.5-1.202-2.639-2.762-3.167-2.762-.936m6 1.059c0 1.375-.034 2.826-.075 3.225-.041.399.465.905 1.125 1.125.67.223.988-.207.719-.975-.265-.756-.108-2.387.35-3.625.625-1.692.466-2.25-.644-2.25-.907 0-1.475.963-1.475 2.5m3.958-.422c-1.153 2.154-.569 5.418.816 4.561.854-.527 1.569-6.639.777-6.639-.264 0-.981.935-1.593 2.078m13.082-.626c-1.596 1.922-.941 4.943 1.158 5.348 2.305.444 5.521-4.481 3.951-6.051-.865-.865-1.149-.776-1.149.36 0 .83-.707 2.382-1.572 3.45-1.491 1.842-1.544 1.775-1.025-1.309.61-3.624.391-3.912-1.363-1.798m7.229-.849c.332.331.199 1.665-.295 2.964-.501 1.32-.516 2.598-.033 2.896.475.294 1.346-.849 1.936-2.539.589-1.691 1.533-2.789 2.097-2.44.564.349 1.026.157 1.026-.425S72.8 157 71.333 157c-1.466 0-2.395.271-2.064.603m5.798 1.647c-1.161 3.009 1.242 5.893 3.176 3.81.836-.9.861-1.131.076-.69-.649.364-1.443.238-1.764-.282-.321-.519.322-1.232 1.43-1.583 1.108-.352 2.015-1.37 2.015-2.264 0-1.364-.252-1.313-1.582.318-1.35 1.657-1.501 1.685-1.031.191.813-2.586-1.305-2.129-2.32.5m7.38-.25c.384 1.375.74 3.043.792 3.706.121 1.543 1.772.574 1.729-1.015-.017-.655-.749-2.091-1.625-3.191-1.551-1.948-1.575-1.935-.896.5m8.701.575c-1.213 2.661-.807 4.425 1.018 4.425.576 0 .776-.708.445-1.572-.332-.865-.14-2.44.428-3.5.567-1.061.638-1.928.157-1.928s-1.403 1.159-2.048 2.575m7.81-.497c-.612 1.143-.866 2.718-.566 3.5.632 1.648 3.197 1.895 4.123.397.349-.563.263-.96-.191-.881-1.929.335-2.22-.236-1.324-2.594 1.169-3.076-.443-3.409-2.042-.422m3.606-.371c-.542 1.425-.428 1.54.56.56.684-.679.991-1.486.683-1.793-.308-.308-.867.247-1.243 1.233m16.609 1.793c-.13 1.925.179 3.5.686 3.5.507 0 1.106-1.575 1.331-3.5.247-2.118-.024-3.5-.686-3.5-.603 0-1.201 1.575-1.331 3.5m5.027-2.3c-1.496 1.496-1.559 4.46-.113 5.354.598.369 1.611.105 2.25-.588.894-.968.867-1.092-.115-.537-.96.544-1.143-.042-.735-2.353.601-3.412.458-3.621-1.287-1.876m2.406.384c-.373.973-.15 1.431.581 1.187 1.495-.498 2.318-2.771 1.003-2.771-.537 0-1.249.713-1.584 1.584m3.394-.143c0 .793.45 1.719 1 2.059 1.718 1.062 1.099 2.752-.75 2.048-1.371-.522-1.488-.403-.542.55.948.956 1.526.953 2.694-.016 1.175-.976 1.255-1.741.381-3.658-1.22-2.678-2.783-3.23-2.783-.983m6.555-.191c-1.11 3.631-1.375 7.743-.534 8.263.531.328.691-.1.361-.961-.386-1.006-.03-1.552 1.011-1.552.884 0 1.607.477 1.607 1.059s.45.781 1 .441c1.566-.968 1.177-2.309-.857-2.955-1.347-.427-1.727-1.269-1.384-3.067.481-2.515-.503-3.519-1.204-1.228m3.028.393c-.837 2.182.275 3.196 1.456 1.328 1.183-1.87 1.208-2.971.068-2.971-.491 0-1.177.739-1.524 1.643m4.617-.443c-1.449 1.449-1.574 4.451-.221 5.287 1.795 1.109 5.021-1.475 5.021-4.022 0-3.025-1.511-3.3-1.736-.316-.089 1.182-.687 2.645-1.329 3.25-.88.83-1.059.301-.725-2.149.244-1.787.387-3.25.317-3.25s-.667.54-1.327 1.2m6.8.241c0 .793.481 1.738 1.068 2.101.588.363.786 1.402.441 2.309-.46 1.209-.33 1.354.487.544.638-.633.831-2.236.451-3.75-.701-2.793-2.447-3.652-2.447-1.204m35 0c0 .793.45 1.719 1 2.059 1.718 1.062 1.099 2.752-.75 2.048-1.371-.522-1.488-.403-.542.55.948.956 1.526.953 2.694-.016 1.175-.976 1.255-1.741.381-3.658-1.22-2.678-2.783-3.23-2.783-.983m5.958.637c-1.3 2.429-.613 4.922 1.356 4.922 2.296 0 5.016-3.717 4.18-5.713-.615-1.466-.911-1.203-1.65 1.463-.496 1.787-1.338 3.25-1.873 3.25-1.261 0-1.235-1.638.064-4.066.678-1.266.69-1.934.035-1.934-.55 0-1.5.935-2.112 2.078m8.242-.878c-1.496 1.496-1.559 4.46-.113 5.354.598.369 1.611.105 2.25-.588.901-.976.851-1.082-.221-.471-1.088.62-1.286.115-.924-2.353.254-1.728.405-3.142.335-3.142s-.667.54-1.327 1.2m2.8-.141c0 .582.45.781 1 .441s1-.816 1-1.059-.45-.441-1-.441-1 .477-1 1.059m3 1.441v3c0 .798.988.578 1.12-.25.066-.412.505-1.762.975-3 .648-1.703.497-2.25-.62-2.25-.907 0-1.475.963-1.475 2.5m3.958-.422c-1.234 2.307-.64 4.922 1.118 4.922.626 0 .866-.708.535-1.572-.332-.865-.14-2.44.428-3.5.676-1.264.687-1.928.031-1.928-.55 0-1.5.935-2.112 2.078m3.595.567c-.366 1.46-.191 3.117.392 3.7.58.58 1.085.852 1.122.605.746-4.971.755-6.95.033-6.95-.486 0-1.182 1.19-1.547 2.645m11.872-.202c-1.065 4.242 1.119 5.87 4.004 2.986 1.745-1.745 2.132-5.429.571-5.429-.55 0-1 1.098-1 2.441 0 1.343-.48 2.738-1.067 3.1-1.696 1.049-2.07-.051-.986-2.902.626-1.646.644-2.639.047-2.639-.526 0-1.232 1.099-1.569 2.443m8.031-.193c.379 1.238.731 2.827.783 3.533.061.826.439.939 1.06.318.533-.533.611-1.783.175-2.784-.435-.999-.72-2.155-.633-2.567.088-.412-.343-.75-.958-.75-.695 0-.856.849-.427 2.25m-13.789-.583c-.97.97-.817 3.333.216 3.333.486 0 1.119-.9 1.407-2 .514-1.966-.312-2.644-1.623-1.333M162 160.441c0 1.501 1.795 3.097 2.59 2.302.698-.697-.683-3.743-1.697-3.743-.491 0-.893.648-.893 1.441M2.14 172.169C.167 177.439-.109 179 .933 179 1.52 179 2 178.55 2 178c0-1.449 3.751-1.23 4.28.25.245.688.735.986 1.087.663.914-.838-1.799-8.224-3.192-8.688-.639-.213-1.555.662-2.035 1.944M9 174.5c0 3.417.377 4.5 1.566 4.5 2.871 0 5.434-2.045 5.434-4.335 0-2.898-1.78-4.665-4.7-4.665-2.059 0-2.3.471-2.3 4.5m9 .059c0 2.979.37 4.33 1.068 3.899.588-.363.827-1.29.532-2.059-.296-.77-.101-1.399.431-1.399.533 0 .969.648.969 1.441 0 2.523 1.982 2.774 2.945.373l.928-2.314.064 2.25c.121 4.326 2.063 2.209 2.063-2.25 0-5.229-1.53-5.848-3.409-1.38l-1.311 3.121-1.088-3.121c-1.585-4.547-3.192-3.823-3.192 1.439m11-.059c0 2.933.435 4.5 1.25 4.5s1.25-1.567 1.25-4.5-.435-4.5-1.25-4.5-1.25 1.567-1.25 4.5m5.132.25c.125 4.523.162 4.583.783 1.25l.652-3.5 1.742 3.25c2.451 4.573 3.713 4.041 3.559-1.5-.125-4.523-.162-4.583-.783-1.25l-.652 3.5-1.742-3.25c-2.451-4.573-3.713-4.041-3.559 1.5m9.368-.25c0 2.475.457 4.5 1.014 4.5.558 0 1.034-2.025 1.056-4.5.023-2.517-.424-4.5-1.014-4.5-.585 0-1.056 2.009-1.056 4.5m4.847-2.963c-.324.846.21 2.421 1.187 3.5 1.714 1.894 1.699 1.963-.438 1.963-1.221 0-1.937.448-1.596 1 .981 1.587 4.501 1.161 5.187-.628.402-1.045-.236-2.29-1.781-3.478l-2.406-1.85 2.309-.022c1.281-.012 2.034-.467 1.691-1.022-.941-1.523-3.489-1.193-4.153.537M54 171c0 .55.45 1 1 1s1 1.575 1 3.5.45 3.5 1 3.5 1-1.575 1-3.5.45-3.5 1-3.5 1-.45 1-1-1.35-1-3-1-3 .45-3 1m7.709-.376c-1.074 1.074-.848 7.172.291 7.876.55.34 1-.084 1-.941 0-1.988 1.606-2.028 2.362-.059.636 1.658 4.638 2.09 4.638.5 0-1.449 3.751-1.23 4.28.25.245.688.789.932 1.207.543.942-.876-1.832-8.075-3.299-8.564-.589-.196-1.617 1.472-2.287 3.707-.67 2.235-1.596 4.064-2.059 4.064-.869 0-1.048-.727-1.234-5-.107-2.472-3.27-4.005-4.899-2.376m16.491.576c-1.543 1.543-1.543 5.057 0 6.6 1.453 1.453 4.8 1.593 4.8.2 0-.55-.9-1-2-1-1.467 0-2-.667-2-2.5s.533-2.5 2-2.5c1.1 0 2-.45 2-1 0-1.393-3.347-1.253-4.8.2m6.3 3.3c0 3.333.389 4.5 1.5 4.5s1.5-1.167 1.5-4.5-.389-4.5-1.5-4.5-1.5 1.167-1.5 4.5m5.546-3.055c-2.845 3.427 1.078 9.221 4.704 6.948C98.318 176.156 97.035 170 93 170c-.965 0-2.295.65-2.954 1.445M99 174.559c0 3.028.365 4.333 1.087 3.887.598-.369.865-1.521.594-2.559-.719-2.747.805-2.311 2.137.613 1.81 3.973 3.197 2.94 3.022-2.25-.131-3.896-.234-4.14-.574-1.357l-.414 3.393-1.911-3.143c-2.665-4.381-3.941-3.922-3.941 1.416m12-.059c0 3.417.377 4.5 1.566 4.5 2.871 0 5.434-2.045 5.434-4.335 0-2.898-1.78-4.665-4.7-4.665-2.059 0-2.3.471-2.3 4.5m9 0c0 4.133.204 4.5 2.5 4.5 1.375 0 2.5-.45 2.5-1s-.675-1-1.5-1-1.5-.45-1.5-1 .702-1 1.559-1 1.276-.457.931-1.016c-.346-.559-1.047-.758-1.559-.441-.512.316-.931.098-.931-.484s.675-1.059 1.5-1.059 1.5-.45 1.5-1-1.125-1-2.5-1c-2.296 0-2.5.367-2.5 4.5m9.347-2.963c-.324.846.21 2.421 1.187 3.5 1.714 1.894 1.699 1.963-.438 1.963-1.221 0-1.937.448-1.596 1 .981 1.587 4.501 1.161 5.187-.628.402-1.045-.236-2.29-1.781-3.478l-2.406-1.85 2.309-.022c1.281-.012 2.034-.467 1.691-1.022-.941-1.523-3.489-1.193-4.153.537M136 174.5c0 3.833.296 4.5 2 4.5 1.1 0 2-.45 2-1s-.675-1-1.5-1-1.5-.45-1.5-1 .675-1 1.5-1 1.5-.477 1.5-1.059-.419-.8-.931-.484c-.512.317-1.213.118-1.559-.441-.345-.559.074-1.016.931-1.016.857 0 1.559-.45 1.559-1s-.9-1-2-1c-1.704 0-2 .667-2 4.5m7.2-3.3c-1.645 1.645-1.509 5.299.252 6.76 2.133 1.77 5.001.851 5.368-1.72.247-1.736-.174-2.24-1.873-2.24-1.835 0-1.989.244-.947 1.5 1.02 1.229.951 1.5-.378 1.5-1.063 0-1.622-.861-1.622-2.5 0-2.015.496-2.5 2.559-2.5 1.451 0 2.292-.433 1.941-1-.847-1.371-3.842-1.258-5.3.2m7.8 2.772c0 4.438 1.953 6.172 4.886 4.336 1.821-1.14 2.834-8.308 1.174-8.308-.583 0-1.06 1.575-1.06 3.5 0 2.444-.452 3.5-1.5 3.5-.993 0-1.5-.993-1.5-2.941 0-1.618-.45-3.219-1-3.559-.604-.374-1 1-1 3.472m9.032.778c.028 4.254.176 4.56 1.411 2.93 1.331-1.755 1.415-1.756 2.393-.008.558.996 1.337 1.488 1.731 1.094.395-.395.23-1.306-.367-2.025-.663-.799-.741-1.866-.2-2.741 1.119-1.811-.589-4-3.122-4-1.578 0-1.873.759-1.846 4.75m7.918-3.19c-1.676 2.02-.123 6.783 2.369 7.263 2.411.464 4.681-1.595 4.681-4.245 0-4.212-4.471-6.126-7.05-3.018m9.397-.023c-.324.846.21 2.421 1.187 3.5 1.714 1.894 1.699 1.963-.438 1.963-1.221 0-1.937.448-1.596 1 .981 1.587 4.501 1.161 5.187-.628.402-1.045-.236-2.29-1.781-3.478l-2.406-1.85 2.309-.022c1.281-.012 2.034-.467 1.691-1.022-.941-1.523-3.489-1.193-4.153.537m9.127 1.413c.839 1.623 1.526 3.723 1.526 4.667 0 2.435 1.156.969 2.64-3.347 1.442-4.193.98-5.501-.99-2.807-1.202 1.645-1.388 1.662-1.958.177-.346-.902-1.105-1.64-1.686-1.64-.637 0-.451 1.173.468 2.95m9.873-1.413c-.324.846.21 2.421 1.187 3.5 1.714 1.894 1.699 1.963-.438 1.963-1.221 0-1.937.448-1.596 1 .981 1.587 4.501 1.161 5.187-.628.402-1.045-.236-2.29-1.781-3.478l-2.406-1.85 2.309-.022c1.281-.012 2.034-.467 1.691-1.022-.941-1.523-3.489-1.193-4.153.537M203 174.5c0 3.833.296 4.5 2 4.5 1.1 0 2-.45 2-1s-.675-1-1.5-1-1.5-.45-1.5-1 .675-1 1.5-1 1.5-.477 1.5-1.059-.419-.8-.931-.484c-.512.317-1.213.118-1.559-.441-.345-.559.074-1.016.931-1.016.857 0 1.559-.45 1.559-1s-.9-1-2-1c-1.704 0-2 .667-2 4.5m6-.066c0 2.511.45 4.566 1 4.566s1-.675 1-1.5.402-1.5.893-1.5 1.152.675 1.469 1.5c.316.825 1.094 1.5 1.729 1.5.838 0 .856-.359.067-1.31-.598-.72-.99-2.632-.872-4.25.184-2.528-.172-2.984-2.536-3.256-2.645-.305-2.75-.142-2.75 4.25m7.566-2.184c2.458 7.89 3.665 8.61 5.437 3.241 1.589-4.816.618-6.812-1.212-2.491l-1.482 3.5-.734-3.25c-.404-1.787-1.178-3.25-1.722-3.25-.565 0-.688.962-.287 2.25m7.908 2.253c-.021 3.41.348 4.497 1.526 4.497s1.547-1.087 1.526-4.497c-.019-3.319-.419-4.497-1.526-4.497s-1.507 1.178-1.526 4.497m5.726-3.303c-2.686 2.686-.72 7.8 3 7.8.99 0 1.8-.45 1.8-1s-.9-1-2-1c-1.467 0-2-.667-2-2.5s.533-2.5 2-2.5c1.1 0 2-.45 2-1 0-1.393-3.347-1.253-4.8.2m6.3 3.3c0 3.333.389 4.5 1.5 4.5s1.5-1.167 1.5-4.5-.389-4.5-1.5-4.5-1.5 1.167-1.5 4.5m5.546-3.055c-2.845 3.427 1.078 9.221 4.704 6.948 3.568-2.237 2.285-8.393-1.75-8.393-.965 0-2.295.65-2.954 1.445m9.161-.252c-.924.924-.704 1.713.974 3.5l2.168 2.307h-2.234c-1.234 0-1.957.447-1.615 1 .981 1.587 4.501 1.161 5.187-.628.402-1.045-.236-2.29-1.781-3.478l-2.406-1.85 2.309-.022c1.281-.012 2.034-.467 1.691-1.022-.835-1.351-2.839-1.261-4.293.193M11 174.5c0 1.556.567 2.5 1.5 2.5s1.5-.944 1.5-2.5-.567-2.5-1.5-2.5-1.5.944-1.5 2.5m52-1.5c0 .55.45 1 1 1s1-.45 1-1-.45-1-1-1-1 .45-1 1m28.18 1.24c.475 3.324 3.82 3.616 3.82.333 0-1.935-.513-2.573-2.07-2.573-1.571 0-1.992.539-1.75 2.24m21.82.26c0 1.556.567 2.5 1.5 2.5s1.5-.944 1.5-2.5-.567-2.5-1.5-2.5-1.5.944-1.5 2.5m49-1.441c0 .582.45.781 1 .441s1-.816 1-1.059-.45-.441-1-.441-1 .477-1 1.059m7.38.393c-.712 1.856.327 3.548 2.179 3.548.87 0 1.441-.99 1.441-2.5 0-2.748-2.671-3.521-3.62-1.048M211 173c0 .55.45 1 1 1s1-.45 1-1-.45-1-1-1-1 .45-1 1m32 1.5c0 1.833.533 2.5 2 2.5s2-.667 2-2.5-.533-2.5-2-2.5-2 .667-2 2.5M3 174c0 .55.45 1 1 1s1-.45 1-1-.45-1-1-1-1 .45-1 1m68.5 0c-.34.55-.141 1 .441 1S73 174.55 73 174s-.198-1-.441-1-.719.45-1.059 1"/><path fill="#1976D2" fill-opacity=".566" fill-rule="evenodd" d="M18.681 78.653c-.375.374-.681 15.005-.681 32.514V143h64.028l-.264-32.25L81.5 78.5l-31.069-.264c-17.088-.145-31.376.042-31.75.417m74.773.607c-.266.693-.364 15.205-.219 32.25l.265 30.99h64l.265-30.88c.188-21.952-.064-31.276-.873-32.25-1.601-1.929-62.699-2.035-63.438-.11m74.76-.074c-.898.898-1.214 8.962-1.214 30.932 0 16.345.273 30.43.607 31.3.536 1.397 4.341 1.582 32.514 1.582h31.907l-.264-32.25-.264-32.25-31.036-.264c-23.303-.198-31.339.039-32.25.95M45.897 82.884c-4.973 1.04-12.347 5.536-14.853 9.054-5.091 7.15-6.542 19.654-3.478 29.973 2.195 7.392 8.386 13.438 16.038 15.662 6.914 2.01 15.559 1.405 21.227-1.487C68.639 134.143 76 126.852 76 125.023c0-1.589-6.342-4.497-6.802-3.118-.863 2.59-5.798 7.448-8.869 8.731-4.854 2.028-11.278 1.68-16.367-.886-6.141-3.097-9.981-10.522-9.918-19.179.076-10.537 3.157-16.338 10.456-19.69 9.258-4.252 18.972-1.067 24.044 7.882.082.145 1.811-.431 3.841-1.28l3.693-1.542-1.789-3.087c-2.018-3.482-6.499-7.223-10.45-8.725-3.79-1.441-13.714-2.13-17.942-1.245M105 110.5V138h8v-22h16.798l6.837 11 6.838 11h4.263c2.345 0 4.264-.206 4.264-.459 0-.252-3.209-5.444-7.13-11.536-3.922-6.093-6.959-11.174-6.75-11.291.209-.118 2.078-1.078 4.154-2.134 5.356-2.726 7.726-7.04 7.726-14.066 0-5.316-.284-6.033-3.773-9.522-5.068-5.069-9.098-5.98-26.477-5.986L105 83v27.5m87.838-20.791c-1.464 3.735-6.496 16.129-11.183 27.541l-8.52 20.75 4.182-.003 4.183-.004 3.04-7.746 3.039-7.747h24.584l2.992 7.75 2.993 7.75h3.926c2.159 0 3.91-.338 3.89-.75-.02-.412-4.857-12.675-10.75-27.25L204.5 83.5l-4.5-.291-4.5-.29-2.662 6.79M113 99.584v9.583l12.089-.333c11.825-.327 12.141-.395 14.5-3.14 2.375-2.763 3.151-7.601 1.79-11.149C140.096 91.202 135.514 90 124.05 90H113v9.584m83.693-.79c-1.537 4.238-3.664 9.844-4.727 12.456l-1.933 4.75h9.484c5.216 0 9.483-.335 9.483-.745 0-1.035-8.2-22.592-8.924-23.461-.324-.389-1.846 2.761-3.383 7M15.278 155.25c-1.57 2.029-2.256 4.643-1.64 6.25.919 2.394 2.129 1.734 1.628-.888-.251-1.313.052-3.338.674-4.5 1.244-2.324.858-2.827-.662-.862m38.813 2.841c-.676 2.257-1.003 4.33-.726 4.607.277.277 1.013-1.387 1.635-3.698 1.473-5.472.692-6.253-.909-.909m41.47-1.341c-.361 1.512-.89 3.537-1.176 4.5-.286.963-.115 1.75.379 1.75.495 0 1.362-2.025 1.929-4.5.566-2.475.691-4.5.277-4.5-.414 0-1.048 1.238-1.409 2.75m15.112 1.696c-.853 2.505-1.146 4.554-.651 4.554.975 0 3.402-7.909 2.656-8.655-.249-.249-1.151 1.596-2.005 4.101m5.327-2.974c0 .875-.625 1.831-1.389 2.124-1.457.559-1.079 3.997.55 5.003.527.326.643-.533.271-2.015-.374-1.49-.225-2.584.353-2.584 1.4 0 2.333-2.809 1.171-3.527-.526-.325-.956.125-.956.999m48.116.528c-.141 3.978.991 7 2.623 7 1.228 0 1.275-.278.256-1.506-.688-.829-1.597-2.966-2.02-4.75-.655-2.759-.784-2.87-.859-.744M222 158c-.622 2.311-.906 4.427-.631 4.702.275.275 1.009-1.391 1.631-3.702.622-2.311.906-4.427.631-4.702-.275-.275-1.009 1.391-1.631 3.702m-41.296.75c.591 3.83 1.019 4.906 1.654 4.167.683-.795-.581-7.917-1.405-7.917-.455 0-.567 1.688-.249 3.75m-122.729-.185c-1.056 2.778-1.299 5.092-.444 4.237.755-.755 2.422-6.802 1.874-6.802-.25 0-.893 1.154-1.43 2.565m-26.291-.183c-.376.98-.655 2.532-.621 3.45.042 1.105.39.853 1.029-.746.531-1.328.81-2.88.62-3.45-.19-.569-.653-.233-1.028.746m3.585-.779c.332.331.193 1.681-.308 3-.576 1.514-.552 2.397.064 2.397.536 0 .975-.638.975-1.418 0-.78.273-2.13.607-3 .358-.932.084-1.582-.667-1.582-.7 0-1.002.271-.671.603m10.302 1.968c-.367 1.466-.475 2.858-.24 3.094.236.235.73-.771 1.098-2.236.367-1.466.475-2.858.24-3.094-.236-.235-.73.771-1.098 2.236m3.629-.111c-.618 1.358-.743 2.704-.277 2.993.467.288 1.085-.709 1.374-2.215.686-3.571.3-3.844-1.097-.778m12.835-.526c-1.267 2.367-1.326 3.364-.156 2.641.883-.546 2.259-4.575 1.563-4.575-.205 0-.837.87-1.407 1.934m4.081-.766c-.064.918-.375 2.493-.692 3.5-.545 1.736-.515 1.739.568.051.628-.98.939-2.555.691-3.5-.406-1.549-.462-1.554-.567-.051m3.455 1.403c-.367 1.466-.443 2.89-.168 3.165.275.275.801-.699 1.168-2.165.368-1.465.444-2.889.169-3.164-.275-.275-.801.699-1.169 2.164m8.993-.864c-.542 1.425-.428 1.54.56.56.684-.679.991-1.486.683-1.793-.308-.308-.867.247-1.243 1.233m3.503-.707c-.002.825.657 2.374 1.465 3.441 1.868 2.47 1.847.846-.032-2.441-.829-1.45-1.431-1.87-1.433-1m10.133.2c-.66.66-1.148 2.122-1.084 3.25.114 2.008.126 2.009.608.05.27-1.1.948-2.562 1.506-3.25 1.295-1.595.551-1.631-1.03-.05m10.364.507c-.542 1.425-.428 1.54.56.56.684-.679.991-1.486.683-1.793-.308-.308-.867.247-1.243 1.233m17.007.864c-.367 1.466-.443 2.89-.168 3.165.275.275.801-.699 1.168-2.165.368-1.465.444-2.889.169-3.164-.275-.275-.801.699-1.169 2.164m4.464-.637c-1.36 2.543-1.311 4.066.132 4.066.641 0 .895-.271.564-.603-.332-.331-.193-1.681.308-3 1.094-2.876.447-3.174-1.004-.463m12.424-.867c-.363.586-.445 1.281-.183 1.543s.743-.218 1.069-1.067c.676-1.762.1-2.072-.886-.476m3.272.853c-.435 1.663-.305 2.054.437 1.312.582-.582.86-1.647.62-2.369-.25-.749-.703-.295-1.057 1.057m4.239.135c-.605 1.131-.952 2.5-.77 3.044.181.543.846-.382 1.478-2.056 1.313-3.481.92-4.03-.708-.988m3.855.271c-.373 1.825-.233 2.482.393 1.856.533-.533.793-1.805.576-2.826-.291-1.375-.543-1.123-.969.97m48.056.455c-.329 1.988-.183 2.921.372 2.366.504-.504.749-1.981.544-3.282-.315-2.001-.455-1.861-.916.916m4.154-.847c-1.328 2.482-1.319 4.066.024 4.066.582 0 .787-.441.454-.979-.333-.539-.119-1.889.476-3 .595-1.112.856-2.021.581-2.021s-.965.87-1.535 1.934m6.536.637c-.367 1.466-.475 2.858-.24 3.094.236.235.73-.771 1.098-2.236.367-1.466.475-2.858.24-3.094-.236-.235-.73.771-1.098 2.236m4.629-1.371c-.66.66-1.148 2.122-1.084 3.25.114 2.008.126 2.009.608.05.27-1.1.948-2.562 1.506-3.25 1.295-1.595.551-1.631-1.03-.05m2.828 1.226c-1.252 3.294-1.264 3.574-.145 3.574.896 0 2.263-5.173 1.557-5.889-.211-.213-.847.828-1.412 2.315m4.007-.492c-1.36 2.543-1.311 4.066.132 4.066.641 0 .895-.271.564-.603-.332-.331-.193-1.681.308-3 1.094-2.876.447-3.174-1.004-.463m14.997-.875c.017.792.692 2.315 1.5 3.382 1.035 1.368 1.459 1.516 1.436.5-.017-.792-.692-2.315-1.5-3.382-1.035-1.368-1.459-1.516-1.436-.5m-209.658 1.408c-.309.807-.37 2.044-.134 2.75s.666.045.956-1.467c.566-2.953.099-3.682-.822-1.283m3.767 1.17c-1.201 2.68-1.175 2.757.404 1.211.928-.908 1.505-2.197 1.283-2.863-.222-.667-.981.077-1.687 1.652m13-.274c.706 1.575 1.465 2.319 1.687 1.652.222-.666-.355-1.955-1.283-2.863-1.579-1.546-1.605-1.469-.404 1.211m35.233-.896c-.309.807-.37 2.044-.134 2.75s.666.045.956-1.467c.566-2.953.099-3.682-.822-1.283m24 0c-.309.807-.37 2.044-.134 2.75s.666.045.956-1.467c.566-2.953.099-3.682-.822-1.283m31.767.896c.706 1.575 1.465 2.319 1.687 1.652.222-.666-.355-1.955-1.283-2.863-1.579-1.546-1.605-1.469-.404 1.211m21 0c.706 1.575 1.465 2.319 1.687 1.652.222-.666-.355-1.955-1.283-2.863-1.579-1.546-1.605-1.469-.404 1.211m35 0c.706 1.575 1.465 2.319 1.687 1.652.222-.666-.355-1.955-1.283-2.863-1.579-1.546-1.605-1.469-.404 1.211m5.233-.896c-.309.807-.37 2.044-.134 2.75s.666.045.956-1.467c.566-2.953.099-3.682-.822-1.283m33.293-.8c-.367.366-.638 1.604-.604 2.75.059 1.915.141 1.89 1.022-.312.979-2.448.776-3.633-.418-2.438m3.474 1.97c-1.201 2.68-1.175 2.757.404 1.211.928-.908 1.505-2.197 1.283-2.863-.222-.667-.981.077-1.687 1.652m-68.422-.346c-.348.905-.171 1.929.391 2.277 1.444.893 1.751.241.939-1.995-.615-1.694-.776-1.728-1.33-.282m-22.969 3.55c.963 1.013 2.156 1.619 2.651 1.348.496-.272.073-1.101-.941-1.842-2.678-1.958-3.748-1.65-1.71.494M29.457 174.163c.056 4.961 1.226 4.963 1.698.004.215-2.25-.069-3.834-.687-3.834-.58 0-1.034 1.724-1.011 3.83m14.388.004c.472 4.959 1.642 4.957 1.698-.004.023-2.106-.431-3.83-1.011-3.83-.618 0-.902 1.584-.687 3.834m5.405-3.505c-1.731.699-1.569 3.278.25 3.976.825.317 1.5 1.251 1.5 2.076 0 1.016-.565 1.285-1.75.834-1.371-.522-1.488-.403-.542.55.948.956 1.545.937 2.783-.09 1.417-1.177 1.353-1.545-.632-3.658-1.996-2.125-1.859-2.847.465-2.444.454.079.54-.318.191-.881-.348-.564-.719-.989-.824-.946-.105.043-.753.306-1.441.583m21.357 2.556c-2.06 4.767-2.026 5.058.424 3.54 1.674-1.037 2.191-1 2.945.213 1.749 2.812 1.748.505-.001-3.471l-1.76-4-1.608 3.718m7.964-1.647c-.864.865-1.571 2.183-1.571 2.929 0 1.513 2.664 4.5 4.012 4.5.479 0 1.145-.445 1.481-.989.343-.555-.035-.74-.864-.422-2.24.859-3.877-2.868-2.242-5.104.821-1.122 1.797-1.489 2.616-.983.863.533 1.064.416.592-.347-.971-1.573-2.157-1.45-4.024.416m15.943.445c1.461 1.614 1.655 2.493.835 3.793-1.804 2.86-3.85 2.029-3.839-1.559.01-3.457-1.112-4.425-1.738-1.5-.87 4.055 1.451 6.869 4.651 5.641 3.12-1.197 3.013-6.626-.155-7.842-1.376-.528-1.334-.279.246 1.467m35.736-1.354c-1.912.772-1.489 3.14.778 4.353 2.347 1.256 1.581 3.43-.879 2.494-1.327-.505-1.403-.38-.392.639 1.014 1.021 1.595.926 3-.489 1.658-1.669 1.621-1.848-.757-3.684-2.225-1.718-2.104-2.49.324-2.069.454.079.54-.318.191-.881-.348-.564-.719-.989-.824-.946-.105.043-.753.306-1.441.583m13.321.909c-.864.865-1.571 2.183-1.571 2.929 0 1.828 2.954 4.681 4.366 4.216 1.413-.464 2.132-4.716.797-4.716-.537 0-.74.9-.453 2 .626 2.393-.944 2.628-2.78.416-1.598-1.926-.028-4.991 2.448-4.779.88.075 1.354-.262 1.052-.75-.81-1.311-2.09-1.084-3.859.684m7.571 1.557c-.156 3.973 1.678 6.262 4.231 5.282 1.129-.433 1.587-1.739 1.495-4.267l-.131-3.643-.619 3.5c-.873 4.944-3.445 4.64-4.226-.5l-.608-4-.142 3.628m18.108-2.466c-1.711.691-1.58 5.819.186 7.285 2.113 1.754 5.564-.384 5.564-3.447 0-1.961-2.683-4.796-4.184-4.421-.174.043-.878.306-1.566.583m9 0c-1.731.699-1.569 3.278.25 3.976.825.317 1.5 1.251 1.5 2.076 0 1.016-.565 1.285-1.75.834-1.408-.536-1.505-.419-.493.6 1.014 1.021 1.57.954 2.871-.347 1.485-1.485 1.448-1.755-.456-3.386-2.06-1.763-2.017-4.055.052-2.777.647.401.797.206.371-.483-.392-.635-.799-1.119-.904-1.076-.105.043-.753.306-1.441.583m19 0c-1.912.772-1.489 3.14.778 4.353 2.347 1.256 1.581 3.43-.879 2.494-1.327-.505-1.403-.38-.392.639 1.014 1.021 1.57.954 2.871-.347 1.485-1.485 1.448-1.755-.456-3.386-2.06-1.763-2.017-4.055.052-2.777.647.401.797.206.371-.483-.392-.635-.799-1.119-.904-1.076-.105.043-.753.306-1.441.583m33.321.909c-.864.865-1.571 2.183-1.571 2.929 0 1.513 2.664 4.5 4.012 4.5.479 0 1.145-.445 1.481-.989.343-.555-.035-.74-.864-.422-2.24.859-3.877-2.868-2.242-5.104.821-1.122 1.797-1.489 2.616-.983.863.533 1.064.416.592-.347-.971-1.573-2.157-1.45-4.024.416m12.554-.669c-2.754 1.744-1.162 8.01 2.054 8.083 1.181.026 3.821-3.072 3.821-4.485 0-1.413-2.64-4.511-3.821-4.485-.374.009-1.298.408-2.054.887m9.125-.24c-1.731.699-1.569 3.278.25 3.976.825.317 1.5 1.251 1.5 2.076 0 1.016-.565 1.285-1.75.834-1.371-.522-1.488-.403-.542.55.948.956 1.545.937 2.783-.09 1.417-1.177 1.353-1.545-.632-3.658-1.996-2.125-1.859-2.847.465-2.444.454.079.54-.318.191-.881-.348-.564-.719-.989-.824-.946-.105.043-.753.306-1.441.583M1.942 173.651c-.554 1.459-.803 3.146-.554 3.75.289.699.483.644.533-.151.043-.687.942-1.25 1.996-1.25s2.143.563 2.421 1.25c.984 2.439.687-1.053-.313-3.685-1.254-3.297-2.809-3.264-4.083.086m7.725-1.984c-1.025 1.025-.79 5.139.333 5.833.595.368 1-.823 1-2.941 0-3.655-.18-4.045-1.333-2.892m4.575 1.394c1.074 1.759.974 2.272-.683 3.5-1.616 1.198-1.669 1.439-.318 1.439.894 0 1.89-.837 2.214-1.859.678-2.135-.24-5.141-1.57-5.141-.496 0-.336.927.357 2.061m3.908 1.606c.119 3.041.236 3.261.568 1.066.246-1.627.855-2.497 1.48-2.111.599.371.869.078.619-.67-1.048-3.146-2.813-2.011-2.667 1.715m5.429-1.126c-.351 1.397-1.074 2.271-1.608 1.941-.534-.33-.971-.15-.971.4 0 2.38 2.102 2 3.162-.572l1.157-2.81.722 3c.713 2.961.724 2.952.841-.75.138-4.395-2.281-5.28-3.303-1.209m10.581 1.209.16 3.75.414-3.393.414-3.393 1.911 3.143c2.55 4.193 3.967 3.968 3.823-.607-.113-3.579-.147-3.616-.752-.797l-.633 2.954-1.772-2.704c-2.46-3.755-3.754-3.375-3.565 1.047M56 174.5c0 1.925.176 3.5.391 3.5.214 0 .574-1.575.799-3.5.225-1.925.049-3.5-.391-3.5-.439 0-.799 1.575-.799 3.5m6.232 0c0 2.2.212 3.179.472 2.175.423-1.636.644-1.67 2.134-.322 1.515 1.372 1.662 1.231 1.662-1.591 0-1.707-.572-3.211-1.275-3.354-.701-.142-.811-.028-.244.252.567.281.777.922.466 1.425-.907 1.469-2.263 1.058-2.758-.835-.251-.963-.457.05-.457 2.25m23.268 0c0 1.925.338 3.5.75 3.5s.75-1.575.75-3.5-.338-3.5-.75-3.5-.75 1.575-.75 3.5m13.65.25c.12 3.016.231 3.212.566 1 .518-3.419 1.618-3.508 3.102-.25 1.672 3.67 3.199 3.047 3.064-1.25-.117-3.692-.13-3.704-.828-.75l-.71 3-1.332-2.75c-1.975-4.074-4.043-3.538-3.862 1m11.85-.25c0 1.925.45 3.5 1 3.5s1-1.575 1-3.5-.45-3.5-1-3.5-1 1.575-1 3.5m4.429-1.929c.864.865 1.571 1.733 1.571 1.929 0 .196-.707 1.064-1.571 1.929-1.332 1.331-1.348 1.571-.107 1.571.805 0 1.747-.738 2.094-1.641.891-2.321-.274-5.359-2.055-5.359-1.31 0-1.301.203.068 1.571M120 174.5c0 1.925.436 3.5.969 3.5.532 0 .724-.636.426-1.413-.319-.83.209-1.606 1.282-1.884 1.736-.449 1.735-.477-.034-.587-1.218-.076-1.659-.632-1.281-1.616.316-.825.139-1.5-.393-1.5-.533 0-.969 1.575-.969 3.5m16 0c0 1.925.436 3.5.969 3.5.532 0 .724-.636.426-1.413-.319-.83.209-1.606 1.282-1.884 1.736-.449 1.735-.477-.034-.587-1.218-.076-1.659-.632-1.281-1.616.316-.825.139-1.5-.393-1.5-.533 0-.969 1.575-.969 3.5m24.116.25c.064 2.063.322 2.963.573 2 .563-2.154 1.928-2.256 3.063-.229.602 1.077.88.493.95-2 .055-1.937-.291-3.521-.77-3.521-.478 0-.61.675-.294 1.5.374.974-.025 1.5-1.138 1.5s-1.512-.526-1.138-1.5c.316-.825.139-1.5-.393-1.5-.533 0-.917 1.688-.853 3.75m9.572-3.104c-1.084 1.083-.802 5.165.408 5.913.603.373 1.833-.059 2.733-.959 1.231-1.232 1.376-2.052.583-3.309-1.23-1.949-2.749-2.62-3.724-1.645m17.608 2.53 1.147 3.676 1.278-3.041c1.538-3.657 1.625-5.01.16-2.491-1.024 1.759-1.103 1.759-2.395 0-1.136-1.548-1.165-1.271-.19 1.856M203 174.5c0 1.925.436 3.5.969 3.5.532 0 .724-.636.426-1.413-.319-.83.209-1.606 1.282-1.884 1.736-.449 1.735-.477-.034-.587-1.218-.076-1.659-.632-1.281-1.616.316-.825.139-1.5-.393-1.5-.533 0-.969 1.575-.969 3.5m7.232 0c0 2.2.212 3.179.472 2.175.457-1.768.54-1.768 2.617 0 1.406 1.197 1.728 1.283.936.251-.872-1.135-.906-1.877-.12-2.663.599-.599.786-1.578.417-2.176-1.014-1.64-2.574-1.304-1.916.413.317.825.111 1.5-.458 1.5-.568 0-1.239-.787-1.491-1.75-.251-.963-.457.05-.457 2.25m6.844-2.815c-.126 1.957 1.807 6.315 2.801 6.315 1.041 0 3.4-6.056 2.651-6.805-.264-.265-.76.371-1.1 1.412a292.024 292.024 0 0 1-1.137 3.393c-.341.986-.966.302-1.828-2-.721-1.925-1.345-2.967-1.387-2.315M225 174.5c0 1.925.45 3.5 1 3.5s1-1.575 1-3.5-.45-3.5-1-3.5-1 1.575-1 3.5m12.5 0c0 1.925.338 3.5.75 3.5s.75-1.575.75-3.5-.338-3.5-.75-3.5-.75 1.575-.75 3.5m6.167-2.833c-1.091 1.09-.758 5.159.485 5.927 1.825 1.128 3.961-2.515 2.774-4.732-1.036-1.937-2.12-2.334-3.259-1.195M3 173.5c0 .825.45 1.5 1 1.5s1-.675 1-1.5-.45-1.5-1-1.5-1 .675-1 1.5m68.583-.634c-.431.697-.513 1.537-.183 1.867.895.895 1.871-.421 1.387-1.871-.338-1.016-.574-1.016-1.204.004"/></svg>